<mxfile host="app.diagrams.net" modified="2024-05-27T16:11:52.244Z" agent="Mozilla/5.0 (Windows NT 10.0; Win64; x64) AppleWebKit/537.36 (KHTML, like Gecko) Chrome/124.0.0.0 Safari/537.36 OPR/110.0.0.0" etag="t3UqTOj7bPyScsfIXG91" version="24.2.2" type="github">
  <diagram name="Страница — 1" id="2zG2QO-hFIdxCl5BQbkB">
    <mxGraphModel dx="687" dy="390" grid="0" gridSize="10" guides="1" tooltips="1" connect="1" arrows="1" fold="1" page="1" pageScale="1" pageWidth="827" pageHeight="1169" math="0" shadow="0">
      <root>
        <mxCell id="0" />
        <mxCell id="1" parent="0" />
        <mxCell id="6MPeJkrhQAW0BNNzGtQ6-1" value="&lt;font style=&quot;font-size: 36px;&quot;&gt;2&lt;/font&gt;" style="ellipse;shape=doubleEllipse;whiteSpace=wrap;html=1;aspect=fixed;" vertex="1" parent="1">
          <mxGeometry x="534" y="380" width="80" height="80" as="geometry" />
        </mxCell>
        <mxCell id="6MPeJkrhQAW0BNNzGtQ6-2" value="&lt;font style=&quot;font-size: 36px;&quot;&gt;0&lt;/font&gt;" style="ellipse;whiteSpace=wrap;html=1;aspect=fixed;" vertex="1" parent="1">
          <mxGeometry x="270" y="230" width="80" height="80" as="geometry" />
        </mxCell>
        <mxCell id="6MPeJkrhQAW0BNNzGtQ6-3" value="&lt;font style=&quot;font-size: 36px;&quot;&gt;1&lt;/font&gt;" style="ellipse;whiteSpace=wrap;html=1;aspect=fixed;" vertex="1" parent="1">
          <mxGeometry x="534" y="120" width="80" height="80" as="geometry" />
        </mxCell>
        <mxCell id="6MPeJkrhQAW0BNNzGtQ6-5" value="" style="endArrow=classic;html=1;rounded=0;exitX=0.623;exitY=0.002;exitDx=0;exitDy=0;exitPerimeter=0;curved=1;" edge="1" parent="1" source="6MPeJkrhQAW0BNNzGtQ6-2">
          <mxGeometry width="50" height="50" relative="1" as="geometry">
            <mxPoint x="360" y="210" as="sourcePoint" />
            <mxPoint x="540" y="140" as="targetPoint" />
            <Array as="points">
              <mxPoint x="410" y="130" />
            </Array>
          </mxGeometry>
        </mxCell>
        <mxCell id="6MPeJkrhQAW0BNNzGtQ6-6" value="" style="endArrow=classic;html=1;rounded=0;entryX=0.915;entryY=0.227;entryDx=0;entryDy=0;entryPerimeter=0;curved=1;exitX=0.015;exitY=0.61;exitDx=0;exitDy=0;exitPerimeter=0;" edge="1" parent="1" source="6MPeJkrhQAW0BNNzGtQ6-3" target="6MPeJkrhQAW0BNNzGtQ6-2">
          <mxGeometry width="50" height="50" relative="1" as="geometry">
            <mxPoint x="530" y="170" as="sourcePoint" />
            <mxPoint x="630" y="290" as="targetPoint" />
            <Array as="points">
              <mxPoint x="450" y="250" />
            </Array>
          </mxGeometry>
        </mxCell>
        <mxCell id="6MPeJkrhQAW0BNNzGtQ6-7" value="" style="triangle;whiteSpace=wrap;html=1;" vertex="1" parent="1">
          <mxGeometry x="240" y="250" width="30" height="50" as="geometry" />
        </mxCell>
        <mxCell id="6MPeJkrhQAW0BNNzGtQ6-8" value="&lt;font style=&quot;font-size: 24px;&quot;&gt;a,d&lt;/font&gt;" style="text;html=1;align=center;verticalAlign=middle;resizable=0;points=[];autosize=1;strokeColor=none;fillColor=none;rotation=-20;" vertex="1" parent="1">
          <mxGeometry x="375" y="120" width="60" height="40" as="geometry" />
        </mxCell>
        <mxCell id="6MPeJkrhQAW0BNNzGtQ6-9" value="&lt;font style=&quot;font-size: 24px;&quot;&gt;c&lt;/font&gt;" style="text;html=1;align=center;verticalAlign=middle;resizable=0;points=[];autosize=1;strokeColor=none;fillColor=none;rotation=-20;" vertex="1" parent="1">
          <mxGeometry x="414" y="190" width="40" height="40" as="geometry" />
        </mxCell>
        <mxCell id="6MPeJkrhQAW0BNNzGtQ6-10" value="" style="endArrow=classic;html=1;rounded=0;exitX=0.5;exitY=1;exitDx=0;exitDy=0;entryX=0.5;entryY=0;entryDx=0;entryDy=0;curved=1;" edge="1" parent="1" source="6MPeJkrhQAW0BNNzGtQ6-3" target="6MPeJkrhQAW0BNNzGtQ6-1">
          <mxGeometry width="50" height="50" relative="1" as="geometry">
            <mxPoint x="490" y="290" as="sourcePoint" />
            <mxPoint x="540" y="240" as="targetPoint" />
            <Array as="points">
              <mxPoint x="610" y="290" />
            </Array>
          </mxGeometry>
        </mxCell>
        <mxCell id="6MPeJkrhQAW0BNNzGtQ6-11" value="&lt;font style=&quot;font-size: 24px;&quot;&gt;a,b,d&lt;/font&gt;" style="text;html=1;align=center;verticalAlign=middle;whiteSpace=wrap;rounded=0;rotation=15;" vertex="1" parent="1">
          <mxGeometry x="590" y="240" width="60" height="30" as="geometry" />
        </mxCell>
        <mxCell id="6MPeJkrhQAW0BNNzGtQ6-12" value="" style="endArrow=classic;html=1;rounded=0;exitX=1;exitY=1;exitDx=0;exitDy=0;entryX=0.948;entryY=0.302;entryDx=0;entryDy=0;curved=1;entryPerimeter=0;" edge="1" parent="1" source="6MPeJkrhQAW0BNNzGtQ6-1" target="6MPeJkrhQAW0BNNzGtQ6-1">
          <mxGeometry width="50" height="50" relative="1" as="geometry">
            <mxPoint x="570" y="340" as="sourcePoint" />
            <mxPoint x="660" y="430" as="targetPoint" />
            <Array as="points">
              <mxPoint x="760" y="440" />
            </Array>
          </mxGeometry>
        </mxCell>
        <mxCell id="6MPeJkrhQAW0BNNzGtQ6-13" value="&lt;font style=&quot;font-size: 24px;&quot;&gt;d&lt;/font&gt;" style="text;html=1;align=center;verticalAlign=middle;resizable=0;points=[];autosize=1;strokeColor=none;fillColor=none;" vertex="1" parent="1">
          <mxGeometry x="680" y="410" width="40" height="40" as="geometry" />
        </mxCell>
        <mxCell id="6MPeJkrhQAW0BNNzGtQ6-15" value="" style="endArrow=classic;html=1;rounded=0;exitX=0.5;exitY=1;exitDx=0;exitDy=0;entryX=0.031;entryY=0.644;entryDx=0;entryDy=0;entryPerimeter=0;curved=1;" edge="1" parent="1" source="6MPeJkrhQAW0BNNzGtQ6-2" target="6MPeJkrhQAW0BNNzGtQ6-1">
          <mxGeometry width="50" height="50" relative="1" as="geometry">
            <mxPoint x="570" y="340" as="sourcePoint" />
            <mxPoint x="620" y="290" as="targetPoint" />
            <Array as="points">
              <mxPoint x="370" y="432" />
            </Array>
          </mxGeometry>
        </mxCell>
        <mxCell id="6MPeJkrhQAW0BNNzGtQ6-16" value="" style="endArrow=classic;html=1;rounded=0;exitX=0.075;exitY=0.25;exitDx=0;exitDy=0;exitPerimeter=0;entryX=1;entryY=1;entryDx=0;entryDy=0;curved=1;" edge="1" parent="1" source="6MPeJkrhQAW0BNNzGtQ6-1" target="6MPeJkrhQAW0BNNzGtQ6-2">
          <mxGeometry width="50" height="50" relative="1" as="geometry">
            <mxPoint x="570" y="340" as="sourcePoint" />
            <mxPoint x="620" y="290" as="targetPoint" />
            <Array as="points">
              <mxPoint x="490" y="280" />
            </Array>
          </mxGeometry>
        </mxCell>
        <mxCell id="6MPeJkrhQAW0BNNzGtQ6-17" value="&lt;font style=&quot;font-size: 24px;&quot;&gt;b&lt;/font&gt;" style="text;html=1;align=center;verticalAlign=middle;resizable=0;points=[];autosize=1;strokeColor=none;fillColor=none;" vertex="1" parent="1">
          <mxGeometry x="360" y="400" width="40" height="40" as="geometry" />
        </mxCell>
        <mxCell id="6MPeJkrhQAW0BNNzGtQ6-18" value="&lt;font style=&quot;font-size: 24px;&quot;&gt;a,b,c&lt;/font&gt;" style="text;html=1;align=center;verticalAlign=middle;resizable=0;points=[];autosize=1;strokeColor=none;fillColor=none;rotation=30;" vertex="1" parent="1">
          <mxGeometry x="435" y="280" width="80" height="40" as="geometry" />
        </mxCell>
        <mxCell id="6MPeJkrhQAW0BNNzGtQ6-19" value="" style="endArrow=classic;html=1;rounded=0;exitX=0.056;exitY=0.252;exitDx=0;exitDy=0;exitPerimeter=0;entryX=0.5;entryY=0;entryDx=0;entryDy=0;entryPerimeter=0;curved=1;" edge="1" parent="1" source="6MPeJkrhQAW0BNNzGtQ6-2" target="6MPeJkrhQAW0BNNzGtQ6-2">
          <mxGeometry width="50" height="50" relative="1" as="geometry">
            <mxPoint x="570" y="330" as="sourcePoint" />
            <mxPoint x="274" y="160" as="targetPoint" />
            <Array as="points">
              <mxPoint x="180" y="110" />
            </Array>
          </mxGeometry>
        </mxCell>
        <mxCell id="6MPeJkrhQAW0BNNzGtQ6-20" value="&lt;font style=&quot;font-size: 24px;&quot;&gt;c&lt;/font&gt;" style="text;html=1;align=center;verticalAlign=middle;resizable=0;points=[];autosize=1;strokeColor=none;fillColor=none;" vertex="1" parent="1">
          <mxGeometry x="200" y="160" width="40" height="40" as="geometry" />
        </mxCell>
      </root>
    </mxGraphModel>
  </diagram>
</mxfile>
